# xmcd
# 
# Track frame offsets:
#     150
#     26188
#     45207
#     72833
#     109118
#     134138
# 
# Disc length: 2200
# 
# Revision: 2
# Processed by: cddbd v1.5.2PL0 Copyright (c) Steve Scherf et al.
# Submitted via: fre:ac v1.0.31
# 
DISCID=51089606
DTITLE=Gov't Mule - Revolution Come...Revolution Go Disc 2
DYEAR=2017
DGENRE=Rock/Pop
TTITLE0=What Fresh Hell
TTITLE1=Click-Track
TTITLE2=Outside Myself
TTITLE3=Revolution Come, Revolution Go (Aternate Version)
TTITLE4=The Man I Want To Be (Live In Studio Version)
TTITLE5=Dark Was The Night, Cold Was The Ground (Live In Studio Version)
EXTD=
EXTT0=
EXTT1=
EXTT2=
EXTT3=
EXTT4=
EXTT5=
PLAYORDER=
